<?xml version="1.0" encoding="utf-8"?>
<!-- Generator: Adobe Illustrator 23.0.4, SVG Export Plug-In . SVG Version: 6.00 Build 0)  -->
<svg version="1.1" id="Layer_1" xmlns="http://www.w3.org/2000/svg" xmlns:xlink="http://www.w3.org/1999/xlink" x="0px" y="0px"
	 viewBox="0 0 208 40.9" style="enable-background:new 0 0 208 40.9;" xml:space="preserve">
<style type="text/css">
	.st0{fill:#FFFFFF;}
	.st1{fill:#EF4023;}
	.st2{fill-rule:evenodd;clip-rule:evenodd;fill:#F47B20;}
	.st3{fill:none;stroke:#010101;stroke-width:0.7195;}
	.st4{fill:#F47B20;}
	.st5{fill:#010101;}
</style>
<g>
	<g>
		<path class="st0" d="M4.2,34.6c-1.1-0.6-1.9-1.6-2.4-2.7c-0.6-1.2-0.9-2.6-0.9-4.2c0-1.6,0.3-3,0.8-4.2c0.6-1.2,1.4-2.1,2.4-2.7
			c1.1-0.6,2.3-1,3.8-1s2.7,0.3,3.8,1c1.1,0.6,1.9,1.5,2.4,2.7c0.6,1.2,0.8,2.6,0.8,4.2c0,1.6-0.3,3-0.9,4.2
			c-0.6,1.2-1.4,2.1-2.4,2.7c-1.1,0.6-2.3,1-3.7,1C6.5,35.6,5.3,35.3,4.2,34.6z M11.8,32.4c0.9-1.1,1.4-2.7,1.4-4.7
			c0-2-0.5-3.6-1.4-4.7c-0.9-1.1-2.2-1.6-3.8-1.6c-1.6,0-2.9,0.6-3.8,1.7c-0.9,1.1-1.4,2.7-1.4,4.7c0,2,0.5,3.6,1.4,4.7
			c0.9,1.1,2.2,1.7,3.8,1.7C9.6,34.1,10.9,33.5,11.8,32.4z"/>
		<path class="st0" d="M25.8,25.2c0.7,0.5,1.3,1.1,1.7,2c0.4,0.8,0.6,1.8,0.6,2.9c0,1.1-0.2,2.1-0.6,2.9c-0.4,0.8-0.9,1.5-1.7,1.9
			c-0.7,0.5-1.5,0.7-2.5,0.7c-0.8,0-1.6-0.2-2.2-0.5c-0.6-0.4-1.1-0.9-1.4-1.6v5.9H18V24.7h1.8v1.8c0.3-0.7,0.8-1.2,1.4-1.6
			c0.6-0.4,1.3-0.5,2.2-0.5C24.3,24.5,25.1,24.7,25.8,25.2z M25.4,33c0.6-0.7,0.9-1.7,0.9-3c0-1.3-0.3-2.3-0.9-3
			C24.8,26.3,24,26,23,26c-1,0-1.8,0.4-2.4,1.1c-0.6,0.7-0.8,1.7-0.8,3c0,1.3,0.3,2.3,0.8,3c0.6,0.7,1.4,1.1,2.4,1.1
			C24,34.1,24.8,33.7,25.4,33z"/>
		<path class="st0" d="M39.7,30.4h-7.8c0.1,1.2,0.4,2.2,1,2.8c0.6,0.6,1.5,1,2.6,1c1.2,0,2.4-0.4,3.4-1.3l0.6,1.3
			c-0.5,0.4-1.1,0.8-1.8,1c-0.7,0.3-1.5,0.4-2.2,0.4c-1.7,0-3-0.5-3.9-1.5c-1-1-1.4-2.3-1.4-4.1c0-1.1,0.2-2.1,0.6-2.9
			c0.4-0.8,1-1.5,1.8-2c0.8-0.5,1.6-0.7,2.6-0.7c1.4,0,2.5,0.5,3.3,1.4c0.8,0.9,1.2,2.2,1.2,3.8V30.4z M32.9,26.7
			c-0.6,0.6-0.9,1.4-1,2.5h6.2c0-1.1-0.3-1.9-0.8-2.5c-0.5-0.6-1.2-0.9-2.1-0.9C34.2,25.9,33.5,26.2,32.9,26.7z"/>
		<path class="st0" d="M51.5,28.7v6.7h-1.8v-6.6c0-1-0.2-1.7-0.6-2.2c-0.4-0.5-1-0.7-1.9-0.7c-1,0-1.8,0.3-2.3,0.9
			c-0.6,0.6-0.9,1.4-0.9,2.4v6.1h-1.8V24.7H44v1.8c0.4-0.7,0.8-1.2,1.5-1.5c0.6-0.3,1.3-0.5,2.1-0.5C50.2,24.5,51.5,25.9,51.5,28.7z
			"/>
		<path class="st0" d="M71.4,28.8c0.5,0.6,0.7,1.4,0.7,2.4c0,1.4-0.4,2.4-1.3,3.1c-0.9,0.7-2.2,1.1-3.8,1.1h-6.4V20h6.2
			c1.6,0,2.8,0.4,3.7,1.1c0.9,0.7,1.3,1.7,1.3,3c0,0.8-0.2,1.5-0.6,2.1c-0.4,0.6-1,1-1.8,1.3C70.3,27.7,71,28.2,71.4,28.8z
			 M62.4,26.8h4.2c1.2,0,2-0.2,2.6-0.7c0.6-0.5,0.9-1.1,0.9-2c0-1.8-1.2-2.6-3.5-2.6h-4.2V26.8z M69.6,33.3c0.6-0.4,0.9-1.1,0.9-2.1
			c0-1.9-1.2-2.8-3.5-2.8h-4.5v5.6h4.5C68.1,33.9,69,33.7,69.6,33.3z"/>
		<path class="st0" d="M82.5,25.5c0.7,0.7,1,1.7,1,3.2v6.7h-1.7v-1.8c-0.3,0.6-0.7,1.1-1.3,1.5c-0.6,0.3-1.2,0.5-2,0.5
			c-0.7,0-1.3-0.1-1.9-0.4c-0.6-0.3-1-0.7-1.4-1.2c-0.3-0.5-0.5-1-0.5-1.6c0-0.8,0.2-1.4,0.6-1.9c0.4-0.4,1.1-0.8,2-1
			c0.9-0.2,2.2-0.3,3.9-0.3h0.5v-0.7c0-0.9-0.2-1.5-0.5-1.9c-0.4-0.4-1-0.6-1.8-0.6c-1.2,0-2.4,0.4-3.7,1.1l-0.6-1.3
			c0.6-0.4,1.2-0.7,2-1c0.8-0.2,1.5-0.4,2.3-0.4C80.8,24.5,81.8,24.8,82.5,25.5z M80.9,33.3c0.6-0.6,0.8-1.4,0.8-2.3v-0.6h-0.4
			c-1.3,0-2.3,0.1-2.9,0.2c-0.7,0.1-1.1,0.3-1.4,0.5c-0.3,0.3-0.4,0.6-0.4,1.1c0,0.6,0.2,1,0.6,1.4c0.4,0.4,0.9,0.6,1.6,0.6
			C79.6,34.2,80.3,33.9,80.9,33.3z"/>
		<path class="st0" d="M95.9,28.7v6.7h-1.8v-6.6c0-1-0.2-1.7-0.6-2.2c-0.4-0.5-1-0.7-1.9-0.7c-1,0-1.8,0.3-2.3,0.9
			c-0.6,0.6-0.9,1.4-0.9,2.4v6.1h-1.8V24.7h1.8v1.8c0.4-0.7,0.8-1.2,1.5-1.5c0.6-0.3,1.3-0.5,2.1-0.5C94.6,24.5,95.9,25.9,95.9,28.7
			z"/>
		<path class="st0" d="M108.7,35.4h-2.3l-5.4-5.1v5.1h-1.8V20h1.8v9.6l5-4.8h2.3l-5.3,5.1L108.7,35.4z"/>
		<path class="st0" d="M109.9,20.1h2.1v2h-2.1V20.1z M110.1,35.4V24.7h1.8v10.7H110.1z"/>
		<path class="st0" d="M124.4,28.7v6.7h-1.8v-6.6c0-1-0.2-1.7-0.6-2.2c-0.4-0.5-1-0.7-1.9-0.7c-1,0-1.8,0.3-2.3,0.9
			c-0.6,0.6-0.9,1.4-0.9,2.4v6.1h-1.8V24.7h1.8v1.8c0.4-0.7,0.8-1.2,1.5-1.5c0.6-0.3,1.3-0.5,2.1-0.5
			C123.1,24.5,124.4,25.9,124.4,28.7z"/>
		<path class="st0" d="M137.2,24.7v9.9c0,1.6-0.4,2.8-1.2,3.6c-0.8,0.8-2,1.2-3.6,1.2c-1.9,0-3.4-0.5-4.7-1.4l0.6-1.3
			c0.7,0.5,1.4,0.8,2,1c0.6,0.2,1.3,0.3,2.1,0.3c1,0,1.8-0.3,2.3-0.8s0.8-1.3,0.8-2.4V33c-0.3,0.7-0.8,1.2-1.4,1.6
			c-0.6,0.4-1.4,0.5-2.2,0.5c-0.9,0-1.8-0.2-2.5-0.7c-0.7-0.4-1.3-1.1-1.7-1.9c-0.4-0.8-0.6-1.7-0.6-2.8c0-1.1,0.2-2,0.6-2.8
			c0.4-0.8,1-1.4,1.7-1.9c0.7-0.4,1.6-0.7,2.5-0.7c0.8,0,1.6,0.2,2.2,0.5c0.6,0.4,1.1,0.9,1.4,1.6v-1.8H137.2z M134.5,32.6
			c0.6-0.7,0.9-1.6,0.9-2.8c0-1.2-0.3-2.1-0.9-2.8c-0.6-0.7-1.4-1-2.4-1c-1,0-1.9,0.3-2.4,1c-0.6,0.7-0.9,1.6-0.9,2.8
			c0,1.2,0.3,2.1,0.9,2.8s1.4,1,2.4,1C133.1,33.6,133.9,33.3,134.5,32.6z"/>
	</g>
	<g>
		<g>
			<polygon class="st0" points="43.7,13.7 41.5,8.4 40,11.8 36.3,11.8 36.3,11.1 39.6,11.1 41.6,6.6 43.8,12 44.7,10.4 46.8,10.4 
				46.8,11.2 45.1,11.2 			"/>
		</g>
		<path class="st0" d="M28.9,5.4h0.4l-0.4,1.1V5.4L28.9,5.4z M28.9,14.8c0.2,0.3,0.4,0.6,0.7,0.9c0.6,0.5,1.3,0.7,2.2,0.7
			c0.9,0,1.7-0.3,2.4-1c0.7-0.6,1-1.4,1-2.4c0-0.8-0.3-1.5-0.8-1.9c-0.5-0.4-1.1-0.8-1.7-1.1L32.4,10l-0.3-0.1
			c-0.6-0.3-1-0.5-1.4-0.8c-0.4-0.3-0.5-0.6-0.5-1.1s0.2-0.9,0.5-1.2c0.4-0.3,0.8-0.4,1.3-0.4c0.3,0,0.6,0.1,0.9,0.2
			c0.2,0.1,0.5,0.3,0.7,0.6l0.1,0.2c0,0,0.1,0.1,0.1,0.2l1-0.6c-0.3-0.6-0.7-1-1.2-1.3c-0.5-0.3-1-0.4-1.5-0.4
			c-0.9,0-1.7,0.3-2.3,0.8C29.3,6.5,29,7.2,29,8c0,0.8,0.3,1.4,0.8,1.8c0.5,0.4,1.1,0.8,1.7,1l0.2,0.1l0.2,0.1
			c0.6,0.3,1.1,0.6,1.5,0.9c0.4,0.3,0.6,0.7,0.6,1.3c0,0.6-0.2,1.2-0.6,1.6c-0.4,0.4-0.9,0.6-1.6,0.6c-0.6,0-1-0.2-1.4-0.5
			c-0.4-0.3-0.6-0.8-0.8-1.5l-0.7,0.2V14.8z M18.2,13.5l3.4-8.7l3.2,8.7L28,5.4h0.9v1.1l-4.1,10.3l-3.2-8.7l-3.4,8.7L14,5.4h1.3
			L18.2,13.5L18.2,13.5z M28.9,13.5l-0.4,0.1c0.1,0.4,0.3,0.8,0.4,1.2V13.5z"/>
		<path class="st0" d="M41.6,4.7c1.7,0,3.2,0.6,4.4,1.8c1.2,1.2,1.8,2.6,1.8,4.4c0,1.7-0.6,3.2-1.8,4.4c-1.2,1.2-2.6,1.8-4.4,1.8
			c0,0,0,0,0,0v-1.1c0.9,0,1.7-0.2,2.5-0.7c0.8-0.4,1.4-1,1.8-1.8c0.4-0.8,0.6-1.6,0.6-2.5c0-0.9-0.2-1.8-0.6-2.5
			c-0.4-0.8-1-1.3-1.8-1.8c-0.8-0.4-1.6-0.7-2.5-0.7V4.7z M41.5,4.7C41.5,4.7,41.5,4.7,41.5,4.7l0.1,1.1c0,0,0,0,0,0
			c-0.9,0-1.7,0.2-2.5,0.7c-0.8,0.5-1.4,1.1-1.8,1.8c-0.4,0.8-0.6,1.6-0.6,2.5c0,1.4,0.5,2.6,1.4,3.5c1,1,2.1,1.4,3.5,1.4
			c0,0,0,0,0,0V17c-1.7,0-3.2-0.6-4.4-1.8c-1.2-1.2-1.8-2.6-1.8-4.3c0-1.1,0.3-2.2,0.8-3.1c0.5-1,1.3-1.7,2.2-2.3
			C39.4,5,40.4,4.7,41.5,4.7z"/>
		<path class="st0" d="M48.1,10.4c0.3-0.1,0.6-0.1,0.9-0.1c0.8,0,1.5,0.3,2,0.8c0.5,0.5,0.8,1.2,0.8,1.9c0,0.5-0.1,1-0.4,1.4
			c-0.2,0.4-0.7,1.1-1.4,1.8l-2.2,2.4h4.1v0.9h-6.1l3.4-3.7c0.7-0.7,1.2-1.3,1.4-1.7c0.2-0.4,0.3-0.7,0.3-1.1c0-0.5-0.2-0.9-0.6-1.3
			c-0.4-0.4-0.8-0.5-1.4-0.5c-0.3,0-0.6,0.1-0.9,0.2c0-0.2,0-0.4,0-0.7C48.1,10.6,48.1,10.5,48.1,10.4z"/>
	</g>
</g>
<path class="st1" d="M204.8,16.6h-127c-1.3,0-2.3-1-2.3-2.3V4.5c0-1.3,1-2.3,2.3-2.3h127c1.3,0,2.3,1,2.3,2.3v9.8
	C207.1,15.6,206.1,16.6,204.8,16.6z"/>
<g>
	<path class="st0" d="M83.4,13.6V5.3H86c0.7,0,1.4,0.2,1.9,0.5c0.6,0.3,1,0.8,1.3,1.4c0.3,0.6,0.5,1.3,0.5,2.1v0.4
		c0,0.8-0.2,1.4-0.5,2s-0.8,1.1-1.3,1.4c-0.6,0.3-1.2,0.5-1.9,0.5H83.4z M85.1,6.7v5.5H86c0.7,0,1.2-0.2,1.5-0.7
		c0.4-0.4,0.5-1.1,0.5-1.9V9.2c0-0.8-0.2-1.5-0.5-1.9c-0.3-0.4-0.9-0.6-1.5-0.6H85.1z"/>
	<path class="st0" d="M96.5,10h-3.3v2.2h3.8v1.4h-5.5V5.3h5.5v1.4h-3.8v2h3.3V10z"/>
	<path class="st0" d="M101.7,11.5l1.9-6.2h1.9l-2.9,8.2h-1.8L98,5.3h1.9L101.7,11.5z"/>
	<path class="st0" d="M111.8,10h-3.3v2.2h3.8v1.4h-5.5V5.3h5.5v1.4h-3.8v2h3.3V10z"/>
	<path class="st0" d="M115.6,12.2h3.6v1.4h-5.3V5.3h1.7V12.2z"/>
	<path class="st0" d="M127.2,9.6c0,0.8-0.1,1.5-0.4,2.1c-0.3,0.6-0.7,1.1-1.2,1.4s-1.1,0.5-1.8,0.5c-0.7,0-1.3-0.2-1.8-0.5
		c-0.5-0.3-1-0.8-1.2-1.4c-0.3-0.6-0.4-1.3-0.4-2.1V9.3c0-0.8,0.1-1.5,0.4-2.1c0.3-0.6,0.7-1.1,1.2-1.4c0.5-0.3,1.1-0.5,1.8-0.5
		c0.7,0,1.3,0.2,1.8,0.5c0.5,0.3,0.9,0.8,1.2,1.4s0.4,1.3,0.4,2.1V9.6z M125.5,9.2c0-0.9-0.2-1.5-0.5-2c-0.3-0.4-0.8-0.7-1.3-0.7
		c-0.6,0-1,0.2-1.3,0.7c-0.3,0.4-0.5,1.1-0.5,2v0.4c0,0.8,0.2,1.5,0.5,2c0.3,0.5,0.8,0.7,1.3,0.7c0.6,0,1-0.2,1.3-0.7s0.5-1.1,0.5-2
		V9.2z"/>
	<path class="st0" d="M130.7,10.6v2.9H129V5.3h3.2c0.6,0,1.2,0.1,1.6,0.3c0.5,0.2,0.8,0.5,1.1,1c0.3,0.4,0.4,0.9,0.4,1.4
		c0,0.8-0.3,1.4-0.8,1.9c-0.6,0.5-1.3,0.7-2.3,0.7H130.7z M130.7,9.3h1.5c0.4,0,0.8-0.1,1-0.3c0.2-0.2,0.4-0.5,0.4-0.9
		c0-0.4-0.1-0.7-0.4-1c-0.2-0.2-0.6-0.4-1-0.4h-1.6V9.3z"/>
	<path class="st0" d="M142,10h-3.3v2.2h3.8v1.4h-5.5V5.3h5.5v1.4h-3.8v2h3.3V10z"/>
	<path class="st0" d="M147.2,10.5h-1.4v3h-1.7V5.3h3.1c1,0,1.7,0.2,2.3,0.7c0.5,0.4,0.8,1,0.8,1.8c0,0.6-0.1,1-0.4,1.4
		c-0.2,0.4-0.6,0.7-1.1,0.9l1.8,3.4v0.1h-1.8L147.2,10.5z M145.9,9.2h1.4c0.4,0,0.8-0.1,1-0.3c0.2-0.2,0.4-0.5,0.4-0.9
		c0-0.4-0.1-0.7-0.3-0.9c-0.2-0.2-0.6-0.3-1-0.3h-1.4V9.2z"/>
	<path class="st0" d="M157.3,10.6v2.9h-1.7V5.3h3.2c0.6,0,1.2,0.1,1.6,0.3c0.5,0.2,0.8,0.5,1.1,1c0.3,0.4,0.4,0.9,0.4,1.4
		c0,0.8-0.3,1.4-0.8,1.9c-0.6,0.5-1.3,0.7-2.3,0.7H157.3z M157.3,9.3h1.5c0.4,0,0.8-0.1,1-0.3c0.2-0.2,0.4-0.5,0.4-0.9
		c0-0.4-0.1-0.7-0.4-1c-0.2-0.2-0.6-0.4-1-0.4h-1.6V9.3z"/>
	<path class="st0" d="M170.5,9.6c0,0.8-0.1,1.5-0.4,2.1c-0.3,0.6-0.7,1.1-1.2,1.4s-1.1,0.5-1.8,0.5c-0.7,0-1.3-0.2-1.8-0.5
		c-0.5-0.3-1-0.8-1.2-1.4c-0.3-0.6-0.4-1.3-0.4-2.1V9.3c0-0.8,0.1-1.5,0.4-2.1c0.3-0.6,0.7-1.1,1.2-1.4c0.5-0.3,1.1-0.5,1.8-0.5
		c0.7,0,1.3,0.2,1.8,0.5c0.5,0.3,0.9,0.8,1.2,1.4s0.4,1.3,0.4,2.1V9.6z M168.7,9.2c0-0.9-0.2-1.5-0.5-2c-0.3-0.4-0.8-0.7-1.3-0.7
		c-0.6,0-1,0.2-1.3,0.7c-0.3,0.4-0.5,1.1-0.5,2v0.4c0,0.8,0.2,1.5,0.5,2c0.3,0.5,0.8,0.7,1.3,0.7c0.6,0,1-0.2,1.3-0.7s0.5-1.1,0.5-2
		V9.2z"/>
	<path class="st0" d="M175.3,10.5H174v3h-1.7V5.3h3.1c1,0,1.7,0.2,2.3,0.7c0.5,0.4,0.8,1,0.8,1.8c0,0.6-0.1,1-0.4,1.4
		c-0.2,0.4-0.6,0.7-1.1,0.9l1.8,3.4v0.1h-1.8L175.3,10.5z M174,9.2h1.4c0.4,0,0.8-0.1,1-0.3c0.2-0.2,0.4-0.5,0.4-0.9
		c0-0.4-0.1-0.7-0.3-0.9c-0.2-0.2-0.6-0.3-1-0.3H174V9.2z"/>
	<path class="st0" d="M186.2,6.7h-2.5v6.9H182V6.7h-2.5V5.3h6.7V6.7z"/>
	<path class="st0" d="M191.7,11.9h-3l-0.6,1.7h-1.8l3.1-8.2h1.6l3.1,8.2h-1.8L191.7,11.9z M189.2,10.5h2.1l-1-3.1L189.2,10.5z"/>
	<path class="st0" d="M197.1,12.2h3.6v1.4h-5.3V5.3h1.7V12.2z"/>
</g>
</svg>
